<svg version="1" xmlns="http://www.w3.org/2000/svg" width="1733.333" height="1733.333" viewBox="0 0 1300.000000 1300.000000"><path d="M258.5 425.5c-1 .4-13 1.6-40 4-8.8.8-20.3 1.9-25.5 2.5-18.6 2-29.7 3.1-46 4.5-9.1.8-21 1.9-26.5 2.5-5.5.6-14.7 1.5-20.4 2-5.8.5-10.9 1.4-11.4 1.9-1.7 1.7.1 4.1 3 4.1 1.5 0 7.3.5 12.8 1.1 5.5.5 14.3 1.4 19.5 1.9 5.2.5 13.6 1.4 18.5 2 5 .5 16.7 1.7 26 2.5 17.1 1.5 28 2.6 45.5 4.5 5.2.5 17.2 1.7 26.5 2.5 9.4.9 19.9 1.8 23.5 2.1 5.8.6 7.6.2 16.5-3 5.5-2 11.2-4.4 12.8-5.2 1.5-.8 2.7-1.3 2.7-1 0 .6 9.8-2.8 10.7-3.7.3-.4 1.5-.7 2.5-.7s1.8-.4 1.8-.8 1.2-.9 2.7-1c3.4-.3 4.6-1.4 4.1-4.2-.3-2.1-1.3-2.7-13.8-7.1-1.9-.6-4.4-1.5-5.5-1.9-1.1-.5-3.6-1.3-5.5-2s-4.4-1.6-5.5-2.1c-8.3-3.5-14.9-5.3-21-5.5-3.8-.2-7.4-.1-8 .1zM325.7 427.3c-1.2 1.8-1.5 5.9-1.6 18l-.2 15.7H363v-15.8c0-21.6 1.3-20.2-19.4-20.2-16 0-16.4.1-17.9 2.3zM410.5 427.1c-2.2 1-4.6 1.9-5.3 1.9-.8 0-2.8.6-4.5 1.4-4.3 1.9-7.3 3-20.2 7.5-9.9 3.4-11 4.1-11.3 6.4-.2 1.9.2 2.7 2 3.2 1.3.3 3.2 1 4.3 1.5 1.1.5 5.4 2.1 9.5 3.5 4.1 1.5 10.3 3.8 13.6 5.1 15.9 6 18.6 6.6 25.4 6 3.6-.4 13.7-1.3 22.5-2.1s20.3-2 25.5-2.5c18.4-1.9 29.7-3 46-4.5 9.1-.8 20.6-1.9 25.5-2.4 29.3-3.2 48.7-5 51.6-5.1 2.7 0 4.7-2.6 3.2-4.1-.5-.5-6-1.4-12.3-2-6.3-.6-15.3-1.5-20-1.9-4.7-.5-16.1-1.6-25.5-2.4-17-1.5-28.6-2.7-46.5-4.6-5.2-.6-16.7-1.7-25.5-2.5s-22.5-2.1-30.5-2.9c-18.2-2-22.5-1.9-27.5.5zM866 426c-5.5.8-17.4 2-40.5 4.1-12 1-23.7 2.2-39.5 3.9-4.7.5-16.1 1.6-25.5 2.5-9.3.8-21 1.9-26 2.4-4.9.5-14.2 1.5-20.5 2.1-6.3.6-11.7 1.6-12.1 2.2-1 1.6.1 3.8 2 3.8 3.6.1 31.8 2.7 52.1 5 5.2.6 17.2 1.7 26.5 2.5 9.4.9 21.1 2 26 2.5 19.7 2 30.7 3.1 46 4.5 8.8.8 18.7 1.8 22.1 2.1 5.9.6 9.6-.1 16.9-3.1 7.6-3.2 13.9-5.5 14.9-5.5.6 0 2.2-.6 3.6-1.3 1.4-.7 4.5-1.9 7-2.7 2.5-.7 5-1.7 5.5-2 .6-.4 2.3-1 3.8-1.4 2.3-.6 2.8-1.1 2.5-3.3-.2-1.8-1.1-2.9-2.8-3.4-2.7-.8-16.2-5.7-31.7-11.6-10.6-4-19.4-4.9-30.3-3.3zM938.6 427.5c-1.3 2-1.6 5.3-1.6 18V461h39v-15c0-11.6-.4-15.8-1.5-18l-1.6-3h-16.3c-16.3 0-16.4 0-18 2.5zM1025.5 426c-1.1.5-6.5 2.5-12 4.5s-10.9 4-12 4.6c-1.1.5-3.3 1.3-5 1.8-10.9 3.3-14 4.9-14.3 7.5-.2 1.4.1 2.7.7 2.7 1.7.2 2.4.4 5.6 1.8 1.7.8 4.1 1.8 5.5 2.3 1.4.6 3.2 1.4 4 1.8.9.4 3.1 1.1 5 1.5 1.9.4 4.1 1.1 5 1.6 2 1 9.1 3.7 16.5 6.1 4.6 1.6 7.4 1.9 12 1.4 5.9-.7 21-2 33-3 3.3-.3 10.5-1 16-1.6 12.7-1.4 24.7-2.6 45.5-4.5 17.5-1.6 27.9-2.7 45-4.5 16.5-1.7 29.2-2.9 32.3-3 2.9 0 4.7-2.4 3.1-4-.5-.5-5.9-1.4-11.9-2-6.1-.5-15.5-1.5-21-2-5.5-.6-17.2-1.7-26-2.6-17.4-1.6-32-3-46-4.4-4.9-.5-16.4-1.7-25.5-2.5-9.1-.8-20.8-2-26-2.5-16.2-1.6-27.4-2.1-29.5-1zM309.5 467.4l-3 2.4v38.7l37.3.2 37.2.2v-38.1l-2.9-2.9-2.9-2.9h-62.7l-3 2.4zM921.9 467.9l-2.9 2.9V509h74l.6-2.4c.3-1.4.4-10.1.2-19.5l-.3-17.1-3-2.5-3-2.4-31.3-.1h-31.4l-2.9 2.9zM620.5 499c-29.6 2.2-41.8 3-52.5 3.5-6.3.3-16.9.9-23.5 1.5-6.6.5-18.3 1.4-26 2-7.7.6-19.6 1.5-26.5 2-36.7 3-64.6 5.3-73.5 6-5.5.5-35.6.9-66.8 1-50.4 0-57 .2-59.2 1.6-1.4.9-2.3 2-2 2.4.3.4-.2 1.3-1 2-1.2 1-1.5 4.1-1.5 15.8 0 14 .1 14.6 2.5 17.8l2.6 3.4 46.6.2 46.6.3 5.1 10c5 9.9 13.9 20.5 17.2 20.5.8 0 1.4.4 1.4.9s1.9 1.7 4.3 2.7c3.8 1.7 7.5 1.9 40.7 2 20.1.1 41.3.2 47.2.3l10.6.1 7.4 13.2c11.5 20.6 10.2 18.7 15.8 22.9 5.9 4.4 7.2 4.4 11.1.2 1.9-2.1 3.3-4.2 3.1-4.6-.1-.5.2-.6.7-.3.5.4 1.8-.4 2.8-1.7 2.3-3 20.4-16.5 26.3-19.6 7-3.8 7.2-3.9 13.3-6.6 28.2-12.4 62.9-15 92.7-7.1 25.7 6.8 44.5 17.8 65.1 37.8 5.5 5.3 6.1 5.7 8.7 4.7 3.3-1.3 8.7-6.2 11.7-10.9 2.2-3.5 5.8-9.9 12.1-21.5 1.8-3.2 4-6.2 4.9-6.5.9-.3 21.1-.5 44.8-.4 23.8.1 45.2-.3 47.7-.8 5.9-1.2 17.3-8.8 21.1-14.1 1.7-2.3 5.1-8.1 7.5-12.9l4.4-8.7h45.5c29-.1 46.3-.4 47.5-1.1 4.4-2.4 5-4.7 5-20 0-15.1-.5-17.2-5-20.7-1.1-.9-15.2-1.2-58-1.3-31.1 0-61.7-.5-68-1-6.3-.5-16.7-1.4-23-2-6.3-.6-20.5-1.7-31.5-2.5s-25.4-1.9-32-2.5c-6.6-.5-18.7-1.4-27-2-8.2-.6-16.3-1.2-18-1.5-1.6-.2-8.8-.7-16-1-7.1-.4-15.2-.8-18-1.1-29.4-2.5-76.7-3.7-95-2.4zm-187.4 54c1 .6 2.8 3.2 3.9 5.8 1.2 2.6 3 6.4 4.1 8.5 2 3.6 2 3.9.4 6.3-1.2 1.9-2.3 2.4-4.3 2.2-2.3-.3-3.3-1.6-6.9-8.8-4.8-9.9-5.1-11.3-2.1-13.4 2.7-1.9 2.4-1.9 4.9-.6zm406.4.4c1.7 1.2 1.8 1.7.6 5.4-.8 2.2-2.8 6.9-4.5 10.4-2.7 5.5-3.5 6.3-6.2 6.6-2.7.3-3.3-.1-4.1-2.3-.7-2.1-.2-4 2.4-9.3 1.8-3.7 3.2-7.4 3.3-8.3 0-1.5 3.2-3.7 5.6-3.8.5-.1 1.9.5 2.9 1.3zm-384.4 8.8c3.1 7.1 3.7 9.3 2.9 11.3-1.1 3-4.9 3.4-7.2.7-2.9-3.4-8-16.4-7.3-18.9.5-2.1 1.1-2.4 4.2-2.1 3.5.3 3.7.6 7.4 9zm14-5.2c.9 1.9 2.8 5.7 4.2 8.5 2.6 5.3 2.3 8.9-.8 10.1-2.1.8-6.5-.4-6.5-1.8 0-.6-1.6-4.4-3.5-8.5s-3.5-7.9-3.5-8.6c0-2.3 2.4-3.8 5.5-3.5 2.2.2 3.3 1.1 4.6 3.8zm17.4 1.2c6.1 11.7 6.2 17.8.5 17.8-2.9 0-3.4-.5-5.9-6.3-5-10.9-5.6-13.4-4.2-15.1.8-.9 2.6-1.6 4.1-1.6 2.3 0 3.2.9 5.5 5.2zm336.6-3.6c2 1.8 1.8 2.7-2.8 12.4-3.4 7.1-5.1 9-8 9-4.2 0-4.8-3.7-1.8-10.6 1.5-3.2 3.3-7.4 4.1-9.2 1.1-2.4 2-3.2 4.1-3.2 1.4 0 3.4.7 4.4 1.6zm33.3.6c.8 1.3.2 3.5-2.3 9.5-4.3 9.8-6 11.8-9.6 10.9-2.6-.7-2.7-1-2.3-4.9.3-2.3 1.9-7.3 3.6-11 3-6.5 3.3-6.8 6.3-6.5 1.8.2 3.7 1.1 4.3 2zm16.9-.1c.7 1.2.4 3.2-1.3 7.5-1.3 3.2-2.9 6.5-3.4 7.3-.6.7-1.5 2.3-2.1 3.5-1.5 3.1-6.5 2.9-8.2-.3-1-2.1-.8-3.1 1.3-7 1.3-2.5 2.4-5 2.4-5.6 0-.5.9-2.5 2-4.3 1.7-2.8 2.5-3.3 5.2-3 1.7.2 3.6 1 4.1 1.9z"/><path d="M635.5 597c-10.2 1.2-25.6 4.9-33 8-20 8.4-31.6 16-45.1 29.5-9.8 9.7-15.6 16.9-20.3 25-5.1 8.7-6.2 10.8-8.6 16.8-1.4 3.4-3 7.1-3.5 8.2-.5 1.1-2.2 6.5-3.7 12-2.7 9.6-2.8 10.9-2.7 32.5 0 18.7.3 23.5 1.8 28.5 1 3.3 2 7.1 2.3 8.5 1.2 5.4 8.9 22.9 13.5 30.5 7.2 11.8 10 15.4 18 23.6 9.4 9.5 12.9 12.5 20.8 17.9 25.8 17.2 51.2 24.2 82.5 22.6 14.7-.7 22.1-2.1 35.6-6.6 8.1-2.7 27.4-12 28.9-13.9.3-.3 3-2.3 6-4.3 5.7-3.9 22-18.8 20.6-18.8-.5 0 .3-.9 1.7-2 5.9-4.7 16.5-21.8 22.4-36.5 7.8-19.4 8.8-25 8.7-50.5-.1-21.9-.2-22.8-3.1-33-4.7-16.2-10.5-28.6-20.2-43-5.8-8.6-23.8-26.3-32.6-32.2-7.6-5-19.9-11.7-25.5-13.8-1.9-.7-5.1-1.9-7-2.6-3.7-1.5-12.1-3.6-20.7-5.3-7.3-1.5-28.5-2.1-36.8-1.1zm39.5 15c4.7 1.2 9.6 2.4 11 2.7 1.4.3 6.8 2.5 12.1 4.8 50.5 22.1 80.3 78.8 69.3 132-6.6 31.8-25.7 60.2-52 77.2-24.4 15.8-53.1 22.2-82.1 18.2-39.8-5.4-74.1-30.7-91.5-67.6-8.9-18.9-13.1-42.5-10.9-61.8C537.3 661 579 618 635.3 610c9.5-1.4 29.9-.3 39.7 2z"/><path d="M595.8 695.7c.7.3 1.6.2 1.9-.1.4-.3-.2-.6-1.3-.5-1.1 0-1.4.3-.6.6zM760.6 741.7c-.6 1.4-.5 1.5.5.6.7-.7 1-1.5.7-1.8-.3-.3-.9.2-1.2 1.2zM756.5 744c-.3.6.1.7.9.4 1.8-.7 2.1-1.4.7-1.4-.6 0-1.3.4-1.6 1zM702.1 754.6c0 1.1.3 1.4.6.6.3-.7.2-1.6-.1-1.9-.3-.4-.6.2-.5 1.3zM556 790c.6 1.1 1.3 2 1.6 2 .2 0 0-.9-.6-2s-1.3-2-1.6-2c-.2 0 0 .9.6 2zM454.2 606.2c-.6 1.8-1.8 6.9-2.7 11.3-.9 4.4-2.1 9.1-2.6 10.5-.7 2.2-6.2 29.2-8.9 44-.5 3-1.7 11.1-2.5 18-.9 6.9-2.1 16.3-2.7 21-1.6 11.5-1.6 70.3 0 84 .7 5.8 1.7 14.8 2.3 20 2.1 18.7 5.5 40.7 7.5 48.5 1.2 4.9 2.9 5.8 11.2 6.3 12.2.6 12.2.6 8.4-16.9-6.2-28.4-7.7-37.6-10.2-64.4-1.1-11.4-1.4-39.1-.4-50.4.7-9.1 4-32.8 5.5-39.1 5.9-26.4 12-45.9 23.6-75 2.5-6.3 5.4-13.6 6.4-16.3l1.9-4.7h-35.8l-1 3.2zM810.9 607.7c1 2.7 3.8 9.5 6.1 15.3 2.3 5.8 5.5 14.3 7.2 19 1.6 4.7 3.4 8.9 3.9 9.4.5.6.9 1.8.9 2.7 0 1 1.3 5.7 2.9 10.6 2.6 7.9 5.8 20.2 9.1 34.8 5.3 23.1 7.6 63 5.1 89-2.7 27.1-3.9 35.2-10.3 64.2-3.8 17.5-3.8 17.5 6.8 17.2 12.6-.3 11.9.7 16.4-25.9 1-6 3.5-25.5 5-39 3.1-28.3 3.6-74.4 1-95-.5-4.1-1.6-13.4-2.5-20.5-1.9-15.5-7.9-47.4-10.6-56.6-1-3.6-2.6-9.9-3.4-14-.8-4.1-1.7-7.9-1.9-8.4-.2-.6-.7-2.5-1.1-4.3l-.7-3.2H809l1.9 4.7z"/></svg>